<?xml version="1.0" encoding="utf-8"?>
<!-- Generator: Adobe Illustrator 24.1.2, SVG Export Plug-In . SVG Version: 6.00 Build 0)  -->
<svg version="1.1" id="Layer_1" xmlns="http://www.w3.org/2000/svg" xmlns:xlink="http://www.w3.org/1999/xlink" x="0px" y="0px"
	 viewBox="0 0 100 100" style="enable-background:new 0 0 100 100;" xml:space="preserve">
<style type="text/css">
	.st0{fill:#FFFFFF;}
</style>
<path class="st0" d="M24.1,62.7l1.8-10.2h-9.4l-1.8,10.2H9l4.3-24.2h5.7l-1.6,9.2h9.4l1.6-9.2h5.7l-4.3,24.2H24.1z M44,60.2
	c-0.5,0.8-1.2,1.5-2.2,2.1c-0.9,0.6-2,0.8-3.2,0.8c-0.9,0-1.7-0.1-2.4-0.4c-0.7-0.3-1.2-0.7-1.7-1.1c-0.4-0.5-0.8-1-1-1.7
	c-0.2-0.6-0.3-1.3-0.3-2c0-0.3,0-0.6,0-0.9c0-0.3,0.1-0.6,0.1-0.9l1.8-10.4h5.5l-1.6,9.2c0,0.3-0.1,0.5-0.1,0.7c0,0.2,0,0.5,0,0.7
	c0,0.6,0.2,1.2,0.5,1.6c0.3,0.5,0.9,0.7,1.8,0.7c0.5,0,1-0.1,1.4-0.3c0.4-0.2,0.7-0.5,1-0.8c0.3-0.3,0.5-0.7,0.8-1.2
	c0.2-0.5,0.4-0.9,0.4-1.4l1.6-9.2h5.5l-2.4,13.5c-0.1,0.4-0.2,1-0.3,1.7c-0.1,0.7-0.2,1.3-0.2,1.8h-5.2c0-0.3,0.1-0.7,0.1-1.2
	c0.1-0.5,0.1-0.9,0.2-1.3H44z M62.9,60.2c-0.5,0.8-1.2,1.5-2.2,2.1c-0.9,0.6-2,0.8-3.2,0.8c-0.9,0-1.7-0.1-2.4-0.4
	c-0.7-0.3-1.2-0.7-1.7-1.1c-0.4-0.5-0.8-1-1-1.7c-0.2-0.6-0.3-1.3-0.3-2c0-0.3,0-0.6,0-0.9c0-0.3,0.1-0.6,0.1-0.9l1.8-10.4h5.5
	L58,54.9c0,0.3-0.1,0.5-0.1,0.7c0,0.2,0,0.5,0,0.7c0,0.6,0.2,1.2,0.5,1.6c0.3,0.5,0.9,0.7,1.8,0.7c0.5,0,1-0.1,1.4-0.3
	c0.4-0.2,0.7-0.5,1-0.8c0.3-0.3,0.5-0.7,0.8-1.2c0.2-0.5,0.4-0.9,0.4-1.4l1.6-9.2h5.5l-2.4,13.5c-0.1,0.4-0.2,1-0.3,1.7
	c-0.1,0.7-0.2,1.3-0.2,1.8h-5.2c0-0.3,0.1-0.7,0.1-1.2c0.1-0.5,0.1-0.9,0.2-1.3H62.9z M78.5,47.9c0.6-0.8,1.4-1.4,2.3-1.9
	c1-0.5,2-0.7,3.1-0.7c1.1,0,2.1,0.2,3,0.5c0.9,0.4,1.6,0.9,2.2,1.5c0.6,0.6,1.1,1.4,1.4,2.3c0.3,0.9,0.5,1.9,0.5,2.9
	c0,1.5-0.2,2.8-0.7,4.1c-0.5,1.3-1.1,2.4-2,3.4c-0.8,1-1.8,1.7-3,2.3c-1.1,0.5-2.4,0.8-3.8,0.8c-1.2,0-2.3-0.3-3.3-0.8
	c-1-0.5-1.8-1.2-2.3-2.1h-0.1l-0.4,2.4h-5.1L75,36.9h5.5L78.5,47.9L78.5,47.9z M85.6,53.3c0-1-0.3-1.9-0.9-2.6c-0.6-0.7-1.5-1-2.6-1
	c-0.7,0-1.3,0.1-1.9,0.4c-0.6,0.3-1.1,0.7-1.5,1.2c-0.4,0.5-0.8,1.1-1,1.7c-0.3,0.7-0.4,1.4-0.4,2.1c0,1,0.3,1.9,1,2.6s1.5,1,2.6,1
	c0.7,0,1.4-0.1,2-0.4c0.6-0.3,1.1-0.7,1.5-1.2c0.4-0.5,0.7-1.1,1-1.7C85.5,54.7,85.6,54,85.6,53.3z"/>
</svg>
