<?xml version="1.0" encoding="utf-8"?>
<!-- Generator: Adobe Illustrator 24.1.2, SVG Export Plug-In . SVG Version: 6.00 Build 0)  -->
<svg version="1.1" id="Layer_1" xmlns="http://www.w3.org/2000/svg" xmlns:xlink="http://www.w3.org/1999/xlink" x="0px" y="0px"
	 viewBox="0 0 153 60" style="enable-background:new 0 0 153 60;" xml:space="preserve">
<style type="text/css">
	.st0{fill:url(#SVGID_1_);}
</style>
<linearGradient id="SVGID_1_" gradientUnits="userSpaceOnUse" x1="1.2213" y1="30" x2="151.7787" y2="30">
	<stop  offset="0" style="stop-color:#FC466B"/>
	<stop  offset="1" style="stop-color:#00DBDE"/>
</linearGradient>
<path class="st0" d="M29,53.3l3.3-18.7H15l-3.3,18.7H1.2L9.1,8.9h10.4l-3,16.9h17.3l3-16.9h10.5l-7.8,44.4H29z M65.5,48.8
	c-1,1.5-2.3,2.8-4,3.8c-1.7,1-3.6,1.5-5.8,1.5c-1.7,0-3.2-0.3-4.5-0.8c-1.3-0.5-2.3-1.2-3.1-2.1c-0.8-0.9-1.4-1.9-1.8-3
	c-0.4-1.1-0.6-2.4-0.6-3.6c0-0.5,0-1.1,0.1-1.7c0-0.6,0.1-1.1,0.3-1.7l3.3-19.1h10.1l-3,16.9c-0.1,0.5-0.1,0.9-0.2,1.3
	c0,0.4-0.1,0.9-0.1,1.3c0,1.1,0.3,2.1,0.9,3c0.6,0.8,1.7,1.3,3.2,1.3c0.9,0,1.7-0.2,2.5-0.6c0.7-0.4,1.4-0.9,1.9-1.5
	c0.5-0.6,1-1.4,1.4-2.2c0.4-0.8,0.6-1.7,0.8-2.6l3-16.9h10l-4.4,24.8c-0.2,0.8-0.3,1.8-0.5,3.1c-0.2,1.3-0.3,2.4-0.4,3.4h-9.5
	c0-0.5,0.1-1.2,0.2-2.2c0.1-0.9,0.2-1.7,0.3-2.4H65.5z M100.2,48.8c-1,1.5-2.3,2.8-4,3.8s-3.6,1.5-5.8,1.5c-1.7,0-3.2-0.3-4.5-0.8
	c-1.3-0.5-2.3-1.2-3.1-2.1c-0.8-0.9-1.4-1.9-1.8-3c-0.4-1.1-0.6-2.4-0.6-3.6c0-0.5,0-1.1,0.1-1.7c0-0.6,0.1-1.1,0.3-1.7l3.3-19.1
	h10.1l-3,16.9c-0.1,0.5-0.1,0.9-0.2,1.3c0,0.4-0.1,0.9-0.1,1.3c0,1.1,0.3,2.1,0.9,3c0.6,0.8,1.7,1.3,3.2,1.3c0.9,0,1.7-0.2,2.5-0.6
	c0.7-0.4,1.4-0.9,1.9-1.5c0.5-0.6,1-1.4,1.4-2.2c0.4-0.8,0.6-1.7,0.8-2.6l3-16.9h10l-4.4,24.8c-0.2,0.8-0.3,1.8-0.5,3.1
	c-0.2,1.3-0.3,2.4-0.4,3.4h-9.5c0-0.5,0.1-1.2,0.2-2.2c0.1-0.9,0.2-1.7,0.3-2.4H100.2z M128.9,26.1c1.1-1.5,2.5-2.6,4.3-3.5
	c1.8-0.9,3.7-1.3,5.7-1.3c2,0,3.8,0.3,5.4,1c1.6,0.7,3,1.6,4.1,2.8c1.1,1.2,2,2.6,2.5,4.3c0.6,1.7,0.9,3.4,0.9,5.4
	c0,2.7-0.4,5.2-1.3,7.6c-0.9,2.4-2.1,4.4-3.6,6.2c-1.5,1.8-3.4,3.1-5.5,4.1c-2.1,1-4.4,1.5-6.9,1.5c-2.2,0-4.3-0.5-6.1-1.4
	c-1.9-0.9-3.3-2.2-4.2-3.8H124l-0.8,4.5H114l8.3-47.5h10.1l-3.7,20.2H128.9z M141.8,36c0-1.9-0.5-3.5-1.6-4.7
	c-1.1-1.3-2.7-1.9-4.8-1.9c-1.3,0-2.4,0.3-3.5,0.8s-2,1.3-2.8,2.2c-0.8,0.9-1.4,2-1.9,3.2c-0.5,1.2-0.7,2.5-0.7,3.8
	c0,1.9,0.6,3.5,1.8,4.7c1.2,1.2,2.8,1.9,4.8,1.9c1.3,0,2.5-0.3,3.6-0.8c1.1-0.5,2-1.2,2.7-2.1c0.8-0.9,1.3-2,1.8-3.2
	C141.6,38.7,141.8,37.4,141.8,36z"/>
</svg>
