<?xml version="1.0" encoding="utf-8"?>
<!-- Generator: Adobe Illustrator 24.1.2, SVG Export Plug-In . SVG Version: 6.00 Build 0)  -->
<svg version="1.1" id="Layer_1" xmlns="http://www.w3.org/2000/svg" xmlns:xlink="http://www.w3.org/1999/xlink" x="0px" y="0px"
	 viewBox="0 0 153 60" style="enable-background:new 0 0 153 60;" xml:space="preserve">
<style type="text/css">
	.st0{fill:url(#SVGID_1_);}
</style>
<linearGradient id="SVGID_1_" gradientUnits="userSpaceOnUse" x1="1.5938" y1="30" x2="151.4062" y2="30">
	<stop  offset="0" style="stop-color:#FC466B"/>
	<stop  offset="1" style="stop-color:#00DBDE"/>
</linearGradient>
<path class="st0" d="M27.3,51.6l3-17.3h-16l-3.1,17.3H1.6l7.3-41.2h9.7l-2.8,15.6h16l2.7-15.6h9.7l-7.3,41.2H27.3z M64.6,47.4
	c-0.9,1.4-2.1,2.6-3.7,3.5c-1.6,0.9-3.4,1.4-5.4,1.4c-1.6,0-3-0.2-4.1-0.7c-1.2-0.5-2.1-1.1-2.9-1.9c-0.8-0.8-1.3-1.8-1.7-2.8
	c-0.3-1.1-0.5-2.2-0.5-3.3c0-0.5,0-1,0.1-1.5c0-0.5,0.1-1.1,0.2-1.6l3.1-17.7h9.4l-2.8,15.7c-0.1,0.4-0.1,0.8-0.2,1.3
	c0,0.4-0.1,0.8-0.1,1.2c0,1.1,0.3,2,0.8,2.7c0.6,0.8,1.6,1.2,3,1.2c0.9,0,1.6-0.2,2.3-0.5s1.3-0.8,1.8-1.4c0.5-0.6,0.9-1.3,1.3-2
	c0.4-0.8,0.6-1.6,0.8-2.4l2.8-15.6h9.3l-4.1,23c-0.2,0.7-0.3,1.7-0.5,2.8c-0.2,1.2-0.3,2.2-0.4,3.1h-8.8c0-0.5,0.1-1.1,0.2-2
	s0.2-1.6,0.3-2.2H64.6z M100.2,47.4c-0.9,1.4-2.1,2.6-3.7,3.5c-1.6,0.9-3.4,1.4-5.4,1.4c-1.6,0-3-0.2-4.1-0.7
	c-1.2-0.5-2.1-1.1-2.9-1.9c-0.8-0.8-1.3-1.8-1.7-2.8c-0.3-1.1-0.5-2.2-0.5-3.3c0-0.5,0-1,0.1-1.5c0-0.5,0.1-1.1,0.2-1.6l3.1-17.7
	h9.4l-2.8,15.7c-0.1,0.4-0.1,0.8-0.2,1.3c0,0.4-0.1,0.8-0.1,1.2c0,1.1,0.3,2,0.8,2.7c0.6,0.8,1.6,1.2,3,1.2c0.9,0,1.6-0.2,2.3-0.5
	c0.7-0.4,1.3-0.8,1.8-1.4c0.5-0.6,0.9-1.3,1.3-2c0.4-0.8,0.6-1.6,0.8-2.4l2.8-15.6h9.3l-4.1,23c-0.2,0.7-0.3,1.7-0.5,2.8
	c-0.2,1.2-0.3,2.2-0.4,3.1h-8.8c0-0.5,0.1-1.1,0.2-2s0.2-1.6,0.3-2.2H100.2z M130.2,26.4c1-1.4,2.3-2.4,4-3.3
	c1.6-0.8,3.4-1.2,5.3-1.2c1.9,0,3.5,0.3,5,0.9c1.5,0.6,2.8,1.5,3.8,2.6c1,1.1,1.8,2.4,2.4,4c0.5,1.5,0.8,3.2,0.8,5
	c0,2.5-0.4,4.8-1.2,7c-0.8,2.2-1.9,4.1-3.3,5.7c-1.4,1.6-3.1,2.9-5.1,3.8c-1.9,0.9-4.1,1.4-6.4,1.4c-2.1,0-3.9-0.4-5.7-1.3
	c-1.7-0.9-3-2-3.9-3.5h-0.1l-0.7,4.1h-8.6l7.7-44h9.4l-3.4,18.7H130.2z M142.2,35.6c0-1.7-0.5-3.2-1.5-4.4s-2.5-1.8-4.5-1.8
	c-1.2,0-2.2,0.3-3.3,0.8c-1,0.5-1.9,1.2-2.6,2c-0.7,0.9-1.3,1.8-1.7,3c-0.4,1.1-0.6,2.3-0.6,3.5c0,1.8,0.5,3.2,1.6,4.4
	c1.1,1.1,2.6,1.7,4.5,1.7c1.2,0,2.4-0.2,3.3-0.7c1-0.5,1.8-1.1,2.5-2c0.7-0.8,1.2-1.8,1.6-2.9C142,38,142.2,36.8,142.2,35.6z"/>
</svg>
